<svg width="523.49755859375px" height="183.8375px" xmlns="http://www.w3.org/2000/svg" viewBox="-11.748779296875 -16.918750000000003 523.49755859375 183.8375" style="background: none;" preserveAspectRatio="xMidYMid"><defs><linearGradient id="editing-sticker-gradient" x1="0.5" y1="0.2" x2="0.5" y2="0.8"><stop offset="0" stop-color="#2e90c2"></stop><stop offset="1" stop-color="#c86914"></stop></linearGradient><filter id="editing-sticker" x="-100%" y="-100%" width="300%" height="300%"><feMorphology operator="erode" radius="1" in="SourceAlpha" result="alpha-erode"></feMorphology><feConvolveMatrix order="3,3" divisor="1" kernelMatrix="0 1 0 1 1 1 0 1 0" in="alpha-erode" result="alpha-round"></feConvolveMatrix><feMorphology operator="dilate" radius="3.5" in="alpha-round" result="dilate-shadow"></feMorphology><feGaussianBlur in="dilate-shadow" stdDeviation="1.5" result="shadow"></feGaussianBlur><feFlood flood-color="#fff" result="flood-sticker"></feFlood><feComposite operator="in" in="flood-sticker" in2="alpha-round" result="comp-sticker"></feComposite><feMorphology operator="dilate" radius="3" in="comp-sticker" result="morph-sticker"></feMorphology><feConvolveMatrix order="3,3" divisor="1" kernelMatrix="0 1 0 1 1 1 0 1 0" in="morph-sticker" result="sticker"></feConvolveMatrix><feMerge><feMergeNode in="shadow"></feMergeNode><feMergeNode in="sticker"></feMergeNode><feMergeNode in="SourceGraphic"></feMergeNode></feMerge></filter></defs><g filter="url(#editing-sticker)"><g transform="translate(64.09000492095947, 112.5)"><path d="M69.82-37.50L69.82 0L19.82 0L19.82 0Q16.16 0 12.99-1.37L12.99-1.37L12.99-1.37Q9.81-2.73 7.42-5.10L7.42-5.10L7.42-5.10Q5.03-7.47 3.66-10.67L3.66-10.67L3.66-10.67Q2.29-13.87 2.29-17.48L2.29-17.48L2.29-17.48Q2.29-21.14 3.66-24.32L3.66-24.32L3.66-24.32Q5.03-27.49 7.42-29.88L7.42-29.88L7.42-29.88Q9.81-32.28 12.99-33.64L12.99-33.64L12.99-33.64Q16.16-35.01 19.82-35.01L19.82-35.01L54.79-35.01L54.79-25L19.82-25L19.82-25Q18.26-25 16.89-24.39L16.89-24.39L16.89-24.39Q15.53-23.78 14.50-22.75L14.50-22.75L14.50-22.75Q13.48-21.73 12.89-20.36L12.89-20.36L12.89-20.36Q12.30-18.99 12.30-17.48L12.30-17.48L12.30-17.48Q12.30-15.92 12.89-14.58L12.89-14.58L12.89-14.58Q13.48-13.23 14.50-12.21L14.50-12.21L14.50-12.21Q15.53-11.18 16.89-10.60L16.89-10.60L16.89-10.60Q18.26-10.01 19.82-10.01L19.82-10.01L59.81-10.01L59.81-37.50L59.81-37.50Q59.81-39.01 59.20-40.38L59.20-40.38L59.20-40.38Q58.59-41.75 57.57-42.77L57.57-42.77L57.57-42.77Q56.54-43.80 55.18-44.41L55.18-44.41L55.18-44.41Q53.81-45.02 52.29-45.02L52.29-45.02L12.30-45.02L12.30-54.98L52.29-54.98L52.29-54.98Q55.96-54.98 59.13-53.61L59.13-53.61L59.13-53.61Q62.30-52.25 64.70-49.88L64.70-49.88L64.70-49.88Q67.09-47.51 68.46-44.34L68.46-44.34L68.46-44.34Q69.82-41.16 69.82-37.50L69.82-37.50ZM148.63-27.49L148.63-27.49L148.63-27.49Q148.63-21.83 146.48-16.85L146.48-16.85L146.48-16.85Q144.34-11.87 140.63-8.13L140.63-8.13L140.63-8.13Q136.91-4.39 131.93-2.22L131.93-2.22L131.93-2.22Q126.95-0.05 121.29 0L121.29 0L83.79 0L83.79-75L93.80-75L93.80-10.01L121.29-10.01L121.29-10.01Q124.90-10.01 128.05-11.40L128.05-11.40L128.05-11.40Q131.20-12.79 133.54-15.16L133.54-15.16L133.54-15.16Q135.89-17.53 137.26-20.70L137.26-20.70L137.26-20.70Q138.62-23.88 138.62-27.49L138.62-27.49L138.62-27.49Q138.62-31.10 137.26-34.28L137.26-34.28L137.26-34.28Q135.89-37.45 133.54-39.82L133.54-39.82L133.54-39.82Q131.20-42.19 128.05-43.58L128.05-43.58L128.05-43.58Q124.90-44.97 121.29-45.02L121.29-45.02L98.83-45.02L98.83-54.98L121.29-54.98L121.29-54.98Q126.95-54.98 131.93-52.81L131.93-52.81L131.93-52.81Q136.91-50.63 140.63-46.90L140.63-46.90L140.63-46.90Q144.34-43.16 146.48-38.16L146.48-38.16L146.48-38.16Q148.63-33.15 148.63-27.49ZM225.98-27.49L225.98-27.49L225.98-27.49Q225.98-21.83 223.83-16.85L223.83-16.85L223.83-16.85Q221.68-11.87 217.99-8.13L217.99-8.13L217.99-8.13Q214.31-4.39 209.33-2.22L209.33-2.22L209.33-2.22Q204.35-0.05 198.68 0L198.68 0L183.30 0L183.30 0Q177.64-0.05 172.66-2.22L172.66-2.22L172.66-2.22Q167.68-4.39 163.99-8.13L163.99-8.13L163.99-8.13Q160.30-11.87 158.15-16.85L158.15-16.85L158.15-16.85Q156.01-21.83 156.01-27.49L156.01-27.49L156.01-27.49Q156.01-33.15 158.15-38.16L158.15-38.16L158.15-38.16Q160.30-43.16 163.99-46.90L163.99-46.90L163.99-46.90Q167.68-50.63 172.66-52.81L172.66-52.81L172.66-52.81Q177.64-54.98 183.30-54.98L183.30-54.98L198.68-54.98L198.68-54.98Q202.44-54.98 205.96-54.00L205.96-54.00L205.96-54.00Q209.47-53.03 212.50-51.22L212.50-51.22L212.50-51.22Q215.53-49.41 218.02-46.90L218.02-46.90L218.02-46.90Q220.51-44.38 222.27-41.33L222.27-41.33L222.27-41.33Q224.02-38.28 225-34.77L225-34.77L225-34.77Q225.98-31.25 225.98-27.49ZM216.02-27.49L216.02-27.49L216.02-27.49Q216.02-31.10 214.65-34.28L214.65-34.28L214.65-34.28Q213.28-37.45 210.94-39.82L210.94-39.82L210.94-39.82Q208.59-42.19 205.44-43.58L205.44-43.58L205.44-43.58Q202.29-44.97 198.68-45.02L198.68-45.02L183.30-45.02L183.30-45.02Q179.69-44.97 176.54-43.58L176.54-43.58L176.54-43.58Q173.39-42.19 171.04-39.82L171.04-39.82L171.04-39.82Q168.70-37.45 167.36-34.28L167.36-34.28L167.36-34.28Q166.02-31.10 166.02-27.49L166.02-27.49L166.02-27.49Q166.02-23.88 167.36-20.70L167.36-20.70L167.36-20.70Q168.70-17.53 171.04-15.16L171.04-15.16L171.04-15.16Q173.39-12.79 176.54-11.40L176.54-11.40L176.54-11.40Q179.69-10.01 183.30-10.01L183.30-10.01L198.68-10.01L198.68-10.01Q202.29-10.01 205.44-11.40L205.44-11.40L205.44-11.40Q208.59-12.79 210.94-15.16L210.94-15.16L210.94-15.16Q213.28-17.53 214.65-20.70L214.65-20.70L214.65-20.70Q216.02-23.88 216.02-27.49ZM300.78-54.98L300.78 0L263.28 0L263.28 0Q257.62 0 252.64-2.17L252.64-2.17L252.64-2.17Q247.66-4.35 243.97-8.08L243.97-8.08L243.97-8.08Q240.28-11.82 238.13-16.82L238.13-16.82L238.13-16.82Q235.99-21.83 235.99-27.49L235.99-27.49L235.99-54.98L246.00-54.98L246.00-27.49L246.00-27.49Q246.00-23.88 247.34-20.73L247.34-20.73L247.34-20.73Q248.68-17.58 251.03-15.21L251.03-15.21L251.03-15.21Q253.37-12.84 256.52-11.45L256.52-11.45L256.52-11.45Q259.67-10.06 263.28-10.01L263.28-10.01L290.77-10.01L290.77-54.98L300.78-54.98ZM334.52-45.02L334.52 0L324.51 0L324.51-45.02L309.52-45.02L309.52-54.98L324.51-54.98L324.51-75L334.52-75L334.52-54.98L369.53-54.98L369.53-45.02L334.52-45.02Z" fill="url(#editing-sticker-gradient)" stroke="#000000" stroke-width="2"></path></g></g><style>text {
  font-size: 64px;
  font-family: Arial Black;
  dominant-baseline: central;
  text-anchor: middle;
}</style></svg>