<svg width="1770.53251953125px" height="256.4275390625px" xmlns="http://www.w3.org/2000/svg" viewBox="-635.266259765625 -53.213769531249994 1770.53251953125 256.4275390625" style="background: none;" preserveAspectRatio="xMidYMid"><defs><linearGradient id="editing-sticker-gradient" x1="0.5" y1="0.2" x2="0.5" y2="0.8"><stop offset="0" stop-color="#c86914"></stop><stop offset="1" stop-color="#2e90c2"></stop></linearGradient><filter id="editing-sticker" x="-100%" y="-100%" width="300%" height="300%"><feMorphology operator="erode" radius="1" in="SourceAlpha" result="alpha-erode"></feMorphology><feConvolveMatrix order="3,3" divisor="1" kernelMatrix="0 1 0 1 1 1 0 1 0" in="alpha-erode" result="alpha-round"></feConvolveMatrix><feMorphology operator="dilate" radius="3.5" in="alpha-round" result="dilate-shadow"></feMorphology><feGaussianBlur in="dilate-shadow" stdDeviation="1.5" result="shadow"></feGaussianBlur><feFlood flood-color="#fff" result="flood-sticker"></feFlood><feComposite operator="in" in="flood-sticker" in2="alpha-round" result="comp-sticker"></feComposite><feMorphology operator="dilate" radius="3" in="comp-sticker" result="morph-sticker"></feMorphology><feConvolveMatrix order="3,3" divisor="1" kernelMatrix="0 1 0 1 1 1 0 1 0" in="morph-sticker" result="sticker"></feConvolveMatrix><feMerge><feMergeNode in="shadow"></feMergeNode><feMergeNode in="sticker"></feMergeNode><feMergeNode in="SourceGraphic"></feMergeNode></feMerge></filter></defs><g filter="url(#editing-sticker)"><g transform="translate(-399.1250343322754, 129)"><path d="M130.78-28.83L130.78-28.83L130.78-28.83Q130.78-22.78 128.50-17.54L128.50-17.54L128.50-17.54Q126.21-12.30 122.31-8.40L122.31-8.40L122.31-8.40Q118.41-4.50 113.13-2.25L113.13-2.25L113.13-2.25Q107.86 0 101.95 0L101.95 0L33.68 0L33.68-14.41L101.95-14.41L101.95-14.41Q104.91-14.41 107.54-15.54L107.54-15.54L107.54-15.54Q110.18-16.66 112.15-18.63L112.15-18.63L112.15-18.63Q114.12-20.60 115.24-23.24L115.24-23.24L115.24-23.24Q116.37-25.88 116.37-28.83L116.37-28.83L116.37-28.83Q116.37-31.78 115.24-34.38L115.24-34.38L115.24-34.38Q114.12-36.98 112.15-38.95L112.15-38.95L112.15-38.95Q110.18-40.92 107.54-42.05L107.54-42.05L107.54-42.05Q104.91-43.17 101.95-43.17L101.95-43.17L33.68-43.17L33.68-57.59L87.54-57.59L87.54-57.59Q90.49-57.59 93.13-58.71L93.13-58.71L93.13-58.71Q95.77-59.84 97.73-61.80L97.73-61.80L97.73-61.80Q99.70-63.77 100.83-66.41L100.83-66.41L100.83-66.41Q101.95-69.05 101.95-72L101.95-72L101.95-72Q101.95-74.95 100.83-77.59L100.83-77.59L100.83-77.59Q99.70-80.23 97.73-82.20L97.73-82.20L97.73-82.20Q95.77-84.16 93.13-85.29L93.13-85.29L93.13-85.29Q90.49-86.41 87.54-86.41L87.54-86.41L26.51-86.41L26.51 0L12.09 0L12.09-100.83L87.54-100.83L87.54-100.83Q93.45-100.83 98.72-98.54L98.72-98.54L98.72-98.54Q103.99-96.26 107.89-92.36L107.89-92.36L107.89-92.36Q111.80-88.45 114.08-83.18L114.08-83.18L114.08-83.18Q116.37-77.91 116.37-72L116.37-72L116.37-72Q116.37-67.43 115.03-63.39L115.03-63.39L115.03-63.39Q113.70-59.34 111.45-55.90L111.45-55.90L111.45-55.90Q115.66-54.42 119.21-51.75L119.21-51.75L119.21-51.75Q122.77-49.08 125.33-45.56L125.33-45.56L125.33-45.56Q127.90-42.05 129.34-37.79L129.34-37.79L129.34-37.79Q130.78-33.54 130.78-28.83ZM224.51-79.17L224.51-64.83L170.51-64.83L170.51-64.83Q168.26-64.83 166.29-63.95L166.29-63.95L166.29-63.95Q164.32-63.07 162.84-61.59L162.84-61.59L162.84-61.59Q161.37-60.12 160.52-58.15L160.52-58.15L160.52-58.15Q159.68-56.18 159.68-54L159.68-54L159.68 0L145.27 0L145.27-54L145.27-54Q145.27-59.27 147.23-63.84L147.23-63.84L147.23-63.84Q149.20-68.41 152.65-71.82L152.65-71.82L152.65-71.82Q156.09-75.23 160.66-77.20L160.66-77.20L160.66-77.20Q165.23-79.17 170.51-79.17L170.51-79.17L224.51-79.17ZM254.11-97.17L254.11-97.17L254.11-97.17Q254.11-94.92 253.27-92.99L253.27-92.99L253.27-92.99Q252.42-91.05 250.95-89.58L250.95-89.58L250.95-89.58Q249.47-88.10 247.50-87.26L247.50-87.26L247.50-87.26Q245.53-86.41 243.35-86.41L243.35-86.41L243.35-86.41Q241.10-86.41 239.13-87.26L239.13-87.26L239.13-87.26Q237.16-88.10 235.69-89.58L235.69-89.58L235.69-89.58Q234.21-91.05 233.37-92.99L233.37-92.99L233.37-92.99Q232.52-94.92 232.52-97.17L232.52-97.17L232.52-97.17Q232.52-99.35 233.37-101.32L233.37-101.32L233.37-101.32Q234.21-103.29 235.69-104.77L235.69-104.77L235.69-104.77Q237.16-106.24 239.13-107.12L239.13-107.12L239.13-107.12Q241.10-108 243.35-108L243.35-108L243.35-108Q245.53-108 247.50-107.12L247.50-107.12L247.50-107.12Q249.47-106.24 250.95-104.77L250.95-104.77L250.95-104.77Q252.42-103.29 253.27-101.32L253.27-101.32L253.27-101.32Q254.11-99.35 254.11-97.17ZM250.52-79.17L250.52 0L236.11 0L236.11-79.17L250.52-79.17ZM361.48-54L361.48 0L289.48 0L289.48 0Q284.20 0 279.63-1.97L279.63-1.97L279.63-1.97Q275.06-3.94 271.62-7.35L271.62-7.35L271.62-7.35Q268.17-10.76 266.20-15.36L266.20-15.36L266.20-15.36Q264.23-19.97 264.23-25.17L264.23-25.17L264.23-25.17Q264.23-30.45 266.20-35.02L266.20-35.02L266.20-35.02Q268.17-39.59 271.62-43.03L271.62-43.03L271.62-43.03Q275.06-46.48 279.63-48.45L279.63-48.45L279.63-48.45Q284.20-50.41 289.48-50.41L289.48-50.41L339.82-50.41L339.82-36L289.48-36L289.48-36Q287.23-36 285.26-35.12L285.26-35.12L285.26-35.12Q283.29-34.24 281.81-32.77L281.81-32.77L281.81-32.77Q280.34-31.29 279.49-29.32L279.49-29.32L279.49-29.32Q278.65-27.35 278.65-25.17L278.65-25.17L278.65-25.17Q278.65-22.92 279.49-20.99L279.49-20.99L279.49-20.99Q280.34-19.05 281.81-17.58L281.81-17.58L281.81-17.58Q283.29-16.10 285.26-15.26L285.26-15.26L285.26-15.26Q287.23-14.41 289.48-14.41L289.48-14.41L347.06-14.41L347.06-54L347.06-54Q347.06-56.18 346.18-58.15L346.18-58.15L346.18-58.15Q345.30-60.12 343.83-61.59L343.83-61.59L343.83-61.59Q342.35-63.07 340.38-63.95L340.38-63.95L340.38-63.95Q338.41-64.83 336.23-64.83L336.23-64.83L278.65-64.83L278.65-79.17L336.23-79.17L336.23-79.17Q341.51-79.17 346.08-77.20L346.08-77.20L346.08-77.20Q350.65-75.23 354.09-71.82L354.09-71.82L354.09-71.82Q357.54-68.41 359.51-63.84L359.51-63.84L359.51-63.84Q361.48-59.27 361.48-54L361.48-54ZM396-64.83L396 0L381.59 0L381.59-79.17L435.59-79.17L435.59-79.17Q443.74-79.17 450.91-76.04L450.91-76.04L450.91-76.04Q458.09-72.91 463.43-67.54L463.43-67.54L463.43-67.54Q468.77-62.16 471.87-54.95L471.87-54.95L471.87-54.95Q474.96-47.74 474.96-39.59L474.96-39.59L474.96 0L460.55 0L460.55-39.59L460.55-39.59Q460.55-44.79 458.58-49.36L458.58-49.36L458.58-49.36Q456.61-53.93 453.23-57.34L453.23-57.34L453.23-57.34Q449.86-60.75 445.32-62.75L445.32-62.75L445.32-62.75Q440.79-64.76 435.59-64.83L435.59-64.83L396-64.83ZM661.43-28.83L661.43-28.83L661.43-28.83Q661.43-22.78 659.18-17.54L659.18-17.54L659.18-17.54Q656.93-12.30 653.03-8.40L653.03-8.40L653.03-8.40Q649.13-4.50 643.89-2.25L643.89-2.25L643.89-2.25Q638.65 0 632.67 0L632.67 0L545.06 0L545.06-14.41L632.67-14.41L632.67-14.41Q635.70-14.41 638.30-15.54L638.30-15.54L638.30-15.54Q640.90-16.66 642.83-18.63L642.83-18.63L642.83-18.63Q644.77-20.60 645.89-23.24L645.89-23.24L645.89-23.24Q647.02-25.88 647.02-28.83L647.02-28.83L647.02-28.83Q647.02-31.78 645.89-34.38L645.89-34.38L645.89-34.38Q644.77-36.98 642.83-38.95L642.83-38.95L642.83-38.95Q640.90-40.92 638.30-42.05L638.30-42.05L638.30-42.05Q635.70-43.17 632.67-43.17L632.67-43.17L573.89-43.17L573.89-43.17Q567.98-43.17 562.71-45.42L562.71-45.42L562.71-45.42Q557.44-47.67 553.54-51.57L553.54-51.57L553.54-51.57Q549.63-55.48 547.35-60.75L547.35-60.75L547.35-60.75Q545.06-66.02 545.06-72L545.06-72L545.06-72Q545.06-77.91 547.35-83.18L547.35-83.18L547.35-83.18Q549.63-88.45 553.54-92.36L553.54-92.36L553.54-92.36Q557.44-96.26 562.71-98.54L562.71-98.54L562.71-98.54Q567.98-100.83 573.89-100.83L573.89-100.83L654.26-100.83L654.26-86.41L573.89-86.41L573.89-86.41Q570.94-86.41 568.30-85.29L568.30-85.29L568.30-85.29Q565.66-84.16 563.70-82.20L563.70-82.20L563.70-82.20Q561.73-80.23 560.60-77.59L560.60-77.59L560.60-77.59Q559.48-74.95 559.48-72L559.48-72L559.48-72Q559.48-69.05 560.60-66.41L560.60-66.41L560.60-66.41Q561.73-63.77 563.70-61.80L563.70-61.80L563.70-61.80Q565.66-59.84 568.30-58.71L568.30-58.71L568.30-58.71Q570.94-57.59 573.89-57.59L573.89-57.59L632.67-57.59L632.67-57.59Q638.65-57.59 643.89-55.30L643.89-55.30L643.89-55.30Q649.13-53.02 653.03-49.11L653.03-49.11L653.03-49.11Q656.93-45.21 659.18-39.97L659.18-39.97L659.18-39.97Q661.43-34.73 661.43-28.83ZM703.55-64.83L703.55 0L689.13 0L689.13-64.83L667.55-64.83L667.55-79.17L689.13-79.17L689.13-108L703.55-108L703.55-79.17L753.96-79.17L753.96-64.83L703.55-64.83ZM856.55-54L856.55-54L856.55-54Q856.55-48.73 854.58-44.16L854.58-44.16L854.58-44.16Q852.61-39.59 849.20-36.18L849.20-36.18L849.20-36.18Q845.79-32.77 841.18-30.80L841.18-30.80L841.18-30.80Q836.58-28.83 831.38-28.83L831.38-28.83L776.18-28.83L776.18-28.83Q777.73-25.66 780.05-22.99L780.05-22.99L780.05-22.99Q782.37-20.32 785.25-18.42L785.25-18.42L785.25-18.42Q788.13-16.52 791.54-15.47L791.54-15.47L791.54-15.47Q794.95-14.41 798.68-14.41L798.68-14.41L845.79-14.41L845.79 0L798.68 0L798.68 0Q790.52-0.07 783.35-3.20L783.35-3.20L783.35-3.20Q776.18-6.33 770.87-11.71L770.87-11.71L770.87-11.71Q765.56-17.09 762.47-24.26L762.47-24.26L762.47-24.26Q759.38-31.43 759.38-39.59L759.38-39.59L759.38-39.59Q759.38-47.74 762.47-54.91L762.47-54.91L762.47-54.91Q765.56-62.09 770.87-67.46L770.87-67.46L770.87-67.46Q776.18-72.84 783.35-75.97L783.35-75.97L783.35-75.97Q790.52-79.10 798.68-79.17L798.68-79.17L831.38-79.17L831.38-79.17Q836.58-79.17 841.18-77.20L841.18-77.20L841.18-77.20Q845.79-75.23 849.20-71.82L849.20-71.82L849.20-71.82Q852.61-68.41 854.58-63.84L854.58-63.84L854.58-63.84Q856.55-59.27 856.55-54ZM774.07-43.17L831.38-43.17L831.38-43.17Q833.55-43.17 835.52-44.02L835.52-44.02L835.52-44.02Q837.49-44.86 838.97-46.34L838.97-46.34L838.97-46.34Q840.45-47.81 841.29-49.78L841.29-49.78L841.29-49.78Q842.13-51.75 842.13-54L842.13-54L842.13-54Q842.13-56.18 841.29-58.15L841.29-58.15L841.29-58.15Q840.45-60.12 838.97-61.59L838.97-61.59L838.97-61.59Q837.49-63.07 835.52-63.95L835.52-63.95L835.52-63.95Q833.55-64.83 831.38-64.83L831.38-64.83L798.68-64.83L798.68-64.83Q793.90-64.83 789.71-63.14L789.71-63.14L789.71-63.14Q785.53-61.45 782.26-58.54L782.26-58.54L782.26-58.54Q778.99-55.62 776.85-51.64L776.85-51.64L776.85-51.64Q774.70-47.67 774.07-43.17L774.07-43.17ZM987.89-79.17L987.89-39.59L987.89-39.59Q987.89-31.43 984.80-24.22L984.80-24.22L984.80-24.22Q981.70-17.02 976.36-11.64L976.36-11.64L976.36-11.64Q971.02-6.26 963.84-3.13L963.84-3.13L963.84-3.13Q956.67 0 948.52 0L948.52 0L908.65 0L908.65 0Q900.49 0 893.32-3.13L893.32-3.13L893.32-3.13Q886.15-6.26 880.84-11.64L880.84-11.64L880.84-11.64Q875.53-17.02 872.44-24.22L872.44-24.22L872.44-24.22Q869.34-31.43 869.34-39.59L869.34-39.59L869.34-79.17L883.76-79.17L883.76-39.59L883.76-39.59Q883.76-34.38 885.69-29.85L885.69-29.85L885.69-29.85Q887.63-25.31 891-21.90L891-21.90L891-21.90Q894.38-18.49 898.91-16.49L898.91-16.49L898.91-16.49Q903.45-14.48 908.65-14.41L908.65-14.41L921.45-14.41L921.45-79.17L935.72-79.17L935.72-14.41L948.52-14.41L948.52-14.41Q953.72-14.48 958.25-16.49L958.25-16.49L958.25-16.49Q962.79-18.49 966.16-21.90L966.16-21.90L966.16-21.90Q969.54-25.31 971.51-29.85L971.51-29.85L971.51-29.85Q973.48-34.38 973.48-39.59L973.48-39.59L973.48-79.17L987.89-79.17ZM1097.51-54L1097.51 0L1025.51 0L1025.51 0Q1020.23 0 1015.66-1.97L1015.66-1.97L1015.66-1.97Q1011.09-3.94 1007.65-7.35L1007.65-7.35L1007.65-7.35Q1004.20-10.76 1002.23-15.36L1002.23-15.36L1002.23-15.36Q1000.27-19.97 1000.27-25.17L1000.27-25.17L1000.27-25.17Q1000.27-30.45 1002.23-35.02L1002.23-35.02L1002.23-35.02Q1004.20-39.59 1007.65-43.03L1007.65-43.03L1007.65-43.03Q1011.09-46.48 1015.66-48.45L1015.66-48.45L1015.66-48.45Q1020.23-50.41 1025.51-50.41L1025.51-50.41L1075.85-50.41L1075.85-36L1025.51-36L1025.51-36Q1023.26-36 1021.29-35.12L1021.29-35.12L1021.29-35.12Q1019.32-34.24 1017.84-32.77L1017.84-32.77L1017.84-32.77Q1016.37-31.29 1015.52-29.32L1015.52-29.32L1015.52-29.32Q1014.68-27.35 1014.68-25.17L1014.68-25.17L1014.68-25.17Q1014.68-22.92 1015.52-20.99L1015.52-20.99L1015.52-20.99Q1016.37-19.05 1017.84-17.58L1017.84-17.58L1017.84-17.58Q1019.32-16.10 1021.29-15.26L1021.29-15.26L1021.29-15.26Q1023.26-14.41 1025.51-14.41L1025.51-14.41L1083.09-14.41L1083.09-54L1083.09-54Q1083.09-56.18 1082.21-58.15L1082.21-58.15L1082.21-58.15Q1081.34-60.12 1079.86-61.59L1079.86-61.59L1079.86-61.59Q1078.38-63.07 1076.41-63.95L1076.41-63.95L1076.41-63.95Q1074.45-64.83 1072.27-64.83L1072.27-64.83L1014.68-64.83L1014.68-79.17L1072.27-79.17L1072.27-79.17Q1077.54-79.17 1082.11-77.20L1082.11-77.20L1082.11-77.20Q1086.68-75.23 1090.13-71.82L1090.13-71.82L1090.13-71.82Q1093.57-68.41 1095.54-63.84L1095.54-63.84L1095.54-63.84Q1097.51-59.27 1097.51-54L1097.51-54ZM1196.30-79.17L1196.30-64.83L1142.30-64.83L1142.30-64.83Q1140.05-64.83 1138.08-63.95L1138.08-63.95L1138.08-63.95Q1136.11-63.07 1134.63-61.59L1134.63-61.59L1134.63-61.59Q1133.16-60.12 1132.31-58.15L1132.31-58.15L1132.31-58.15Q1131.47-56.18 1131.47-54L1131.47-54L1131.47 0L1117.05 0L1117.05-54L1117.05-54Q1117.05-59.27 1119.02-63.84L1119.02-63.84L1119.02-63.84Q1120.99-68.41 1124.44-71.82L1124.44-71.82L1124.44-71.82Q1127.88-75.23 1132.45-77.20L1132.45-77.20L1132.45-77.20Q1137.02-79.17 1142.30-79.17L1142.30-79.17L1196.30-79.17ZM1235.74-64.83L1235.74 0L1221.33 0L1221.33-64.83L1199.74-64.83L1199.74-79.17L1221.33-79.17L1221.33-108L1235.74-108L1235.74-79.17L1286.16-79.17L1286.16-64.83L1235.74-64.83Z" fill="url(#editing-sticker-gradient)" stroke="#000000" stroke-width="2"></path></g></g><style>text {
  font-size: 64px;
  font-family: Arial Black;
  dominant-baseline: central;
  text-anchor: middle;
}</style></svg>