<svg width="714.4924560546875px" height="183.8375px" xmlns="http://www.w3.org/2000/svg" viewBox="-107.24622802734376 -16.918750000000003 714.4924560546875 183.8375" style="background: none;" preserveAspectRatio="xMidYMid"><defs><linearGradient id="editing-sticker-gradient" x1="0.5" y1="0.2" x2="0.5" y2="0.8"><stop offset="0" stop-color="#2e90c2"></stop><stop offset="1" stop-color="#c86914"></stop></linearGradient><filter id="editing-sticker" x="-100%" y="-100%" width="300%" height="300%"><feMorphology operator="erode" radius="1" in="SourceAlpha" result="alpha-erode"></feMorphology><feConvolveMatrix order="3,3" divisor="1" kernelMatrix="0 1 0 1 1 1 0 1 0" in="alpha-erode" result="alpha-round"></feConvolveMatrix><feMorphology operator="dilate" radius="3.5" in="alpha-round" result="dilate-shadow"></feMorphology><feGaussianBlur in="dilate-shadow" stdDeviation="1.5" result="shadow"></feGaussianBlur><feFlood flood-color="#fff" result="flood-sticker"></feFlood><feComposite operator="in" in="flood-sticker" in2="alpha-round" result="comp-sticker"></feComposite><feMorphology operator="dilate" radius="3" in="comp-sticker" result="morph-sticker"></feMorphology><feConvolveMatrix order="3,3" divisor="1" kernelMatrix="0 1 0 1 1 1 0 1 0" in="morph-sticker" result="sticker"></feConvolveMatrix><feMerge><feMergeNode in="shadow"></feMergeNode><feMergeNode in="sticker"></feMergeNode><feMergeNode in="SourceGraphic"></feMergeNode></feMerge></filter></defs><g filter="url(#editing-sticker)"><g transform="translate(-7.375007152557373, 122.51000213623047)"><path d="M72.02-27.49L72.02-27.49L72.02-27.49Q72.02-21.83 69.87-16.82L69.87-16.82L69.87-16.82Q67.72-11.82 64.01-8.08L64.01-8.08L64.01-8.08Q60.30-4.35 55.32-2.17L55.32-2.17L55.32-2.17Q50.34 0 44.68 0L44.68 0L22.22 0L22.22-10.01L44.68-10.01L44.68-10.01Q48.29-10.06 51.44-11.45L51.44-11.45L51.44-11.45Q54.59-12.84 56.93-15.21L56.93-15.21L56.93-15.21Q59.28-17.58 60.64-20.73L60.64-20.73L60.64-20.73Q62.01-23.88 62.01-27.49L62.01-27.49L62.01-27.49Q62.01-31.10 60.64-34.30L60.64-34.30L60.64-34.30Q59.28-37.50 56.93-39.87L56.93-39.87L56.93-39.87Q54.59-42.24 51.44-43.63L51.44-43.63L51.44-43.63Q48.29-45.02 44.68-45.02L44.68-45.02L17.19-45.02L17.19 20.02L7.18 20.02L7.18-54.98L44.68-54.98L44.68-54.98Q50.34-54.93 55.32-52.76L55.32-52.76L55.32-52.76Q60.30-50.59 64.01-46.85L64.01-46.85L64.01-46.85Q67.72-43.12 69.87-38.13L69.87-38.13L69.87-38.13Q72.02-33.15 72.02-27.49ZM137.50-54.98L137.50-45.02L100-45.02L100-45.02Q98.44-45.02 97.07-44.41L97.07-44.41L97.07-44.41Q95.70-43.80 94.68-42.77L94.68-42.77L94.68-42.77Q93.65-41.75 93.07-40.38L93.07-40.38L93.07-40.38Q92.48-39.01 92.48-37.50L92.48-37.50L92.48 0L82.47 0L82.47-37.50L82.47-37.50Q82.47-41.16 83.84-44.34L83.84-44.34L83.84-44.34Q85.21-47.51 87.60-49.88L87.60-49.88L87.60-49.88Q89.99-52.25 93.16-53.61L93.16-53.61L93.16-53.61Q96.34-54.98 100-54.98L100-54.98L137.50-54.98ZM211.38-27.49L211.38-27.49L211.38-27.49Q211.38-21.83 209.23-16.85L209.23-16.85L209.23-16.85Q207.08-11.87 203.39-8.13L203.39-8.13L203.39-8.13Q199.71-4.39 194.73-2.22L194.73-2.22L194.73-2.22Q189.75-0.05 184.08 0L184.08 0L168.70 0L168.70 0Q163.04-0.05 158.06-2.22L158.06-2.22L158.06-2.22Q153.08-4.39 149.39-8.13L149.39-8.13L149.39-8.13Q145.70-11.87 143.55-16.85L143.55-16.85L143.55-16.85Q141.41-21.83 141.41-27.49L141.41-27.49L141.41-27.49Q141.41-33.15 143.55-38.16L143.55-38.16L143.55-38.16Q145.70-43.16 149.39-46.90L149.39-46.90L149.39-46.90Q153.08-50.63 158.06-52.81L158.06-52.81L158.06-52.81Q163.04-54.98 168.70-54.98L168.70-54.98L184.08-54.98L184.08-54.98Q187.84-54.98 191.36-54.00L191.36-54.00L191.36-54.00Q194.87-53.03 197.90-51.22L197.90-51.22L197.90-51.22Q200.93-49.41 203.42-46.90L203.42-46.90L203.42-46.90Q205.91-44.38 207.67-41.33L207.67-41.33L207.67-41.33Q209.42-38.28 210.40-34.77L210.40-34.77L210.40-34.77Q211.38-31.25 211.38-27.49ZM201.42-27.49L201.42-27.49L201.42-27.49Q201.42-31.10 200.05-34.28L200.05-34.28L200.05-34.28Q198.68-37.45 196.34-39.82L196.34-39.82L196.34-39.82Q193.99-42.19 190.84-43.58L190.84-43.58L190.84-43.58Q187.70-44.97 184.08-45.02L184.08-45.02L168.70-45.02L168.70-45.02Q165.09-44.97 161.94-43.58L161.94-43.58L161.94-43.58Q158.79-42.19 156.45-39.82L156.45-39.82L156.45-39.82Q154.10-37.45 152.76-34.28L152.76-34.28L152.76-34.28Q151.42-31.10 151.42-27.49L151.42-27.49L151.42-27.49Q151.42-23.88 152.76-20.70L152.76-20.70L152.76-20.70Q154.10-17.53 156.45-15.16L156.45-15.16L156.45-15.16Q158.79-12.79 161.94-11.40L161.94-11.40L161.94-11.40Q165.09-10.01 168.70-10.01L168.70-10.01L184.08-10.01L184.08-10.01Q187.70-10.01 190.84-11.40L190.84-11.40L190.84-11.40Q193.99-12.79 196.34-15.16L196.34-15.16L196.34-15.16Q198.68-17.53 200.05-20.70L200.05-20.70L200.05-20.70Q201.42-23.88 201.42-27.49ZM232.28-54.98L232.28 2.49L232.28 2.49Q232.28 6.15 230.91 9.33L230.91 9.33L230.91 9.33Q229.54 12.50 227.17 14.89L227.17 14.89L227.17 14.89Q224.80 17.29 221.63 18.65L221.63 18.65L221.63 18.65Q218.46 20.02 214.79 20.02L214.79 20.02L192.29 20.02L192.29 10.01L214.79 10.01L214.79 10.01Q216.31 10.01 217.68 9.42L217.68 9.42L217.68 9.42Q219.04 8.84 220.07 7.81L220.07 7.81L220.07 7.81Q221.09 6.79 221.68 5.42L221.68 5.42L221.68 5.42Q222.27 4.05 222.27 2.49L222.27 2.49L222.27-54.98L232.28-54.98ZM234.77-67.48L234.77-67.48L234.77-67.48Q234.77-65.92 234.18-64.58L234.18-64.58L234.18-64.58Q233.59-63.23 232.59-62.21L232.59-62.21L232.59-62.21Q231.59-61.18 230.22-60.60L230.22-60.60L230.22-60.60Q228.86-60.01 227.29-60.01L227.29-60.01L227.29-60.01Q225.73-60.01 224.37-60.60L224.37-60.60L224.37-60.60Q223.00-61.18 221.97-62.21L221.97-62.21L221.97-62.21Q220.95-63.23 220.36-64.58L220.36-64.58L220.36-64.58Q219.78-65.92 219.78-67.48L219.78-67.48L219.78-67.48Q219.78-68.99 220.36-70.36L220.36-70.36L220.36-70.36Q220.95-71.73 221.97-72.75L221.97-72.75L221.97-72.75Q223.00-73.78 224.37-74.39L224.37-74.39L224.37-74.39Q225.73-75 227.29-75L227.29-75L227.29-75Q228.86-75 230.22-74.39L230.22-74.39L230.22-74.39Q231.59-73.78 232.59-72.75L232.59-72.75L232.59-72.75Q233.59-71.73 234.18-70.36L234.18-70.36L234.18-70.36Q234.77-68.99 234.77-67.48ZM310.69-37.50L310.69-37.50L310.69-37.50Q310.69-33.84 309.33-30.66L309.33-30.66L309.33-30.66Q307.96-27.49 305.59-25.12L305.59-25.12L305.59-25.12Q303.22-22.75 300.02-21.39L300.02-21.39L300.02-21.39Q296.83-20.02 293.21-20.02L293.21-20.02L254.88-20.02L254.88-20.02Q255.96-17.82 257.57-15.97L257.57-15.97L257.57-15.97Q259.18-14.11 261.18-12.79L261.18-12.79L261.18-12.79Q263.18-11.47 265.55-10.74L265.55-10.74L265.55-10.74Q267.92-10.01 270.51-10.01L270.51-10.01L303.22-10.01L303.22 0L270.51 0L270.51 0Q264.84-0.05 259.86-2.22L259.86-2.22L259.86-2.22Q254.88-4.39 251.20-8.13L251.20-8.13L251.20-8.13Q247.51-11.87 245.36-16.85L245.36-16.85L245.36-16.85Q243.21-21.83 243.21-27.49L243.21-27.49L243.21-27.49Q243.21-33.15 245.36-38.13L245.36-38.13L245.36-38.13Q247.51-43.12 251.20-46.85L251.20-46.85L251.20-46.85Q254.88-50.59 259.86-52.76L259.86-52.76L259.86-52.76Q264.84-54.93 270.51-54.98L270.51-54.98L293.21-54.98L293.21-54.98Q296.83-54.98 300.02-53.61L300.02-53.61L300.02-53.61Q303.22-52.25 305.59-49.88L305.59-49.88L305.59-49.88Q307.96-47.51 309.33-44.34L309.33-44.34L309.33-44.34Q310.69-41.16 310.69-37.50ZM253.42-29.98L293.21-29.98L293.21-29.98Q294.73-29.98 296.09-30.57L296.09-30.57L296.09-30.57Q297.46-31.15 298.49-32.18L298.49-32.18L298.49-32.18Q299.51-33.20 300.10-34.57L300.10-34.57L300.10-34.57Q300.68-35.94 300.68-37.50L300.68-37.50L300.68-37.50Q300.68-39.01 300.10-40.38L300.10-40.38L300.10-40.38Q299.51-41.75 298.49-42.77L298.49-42.77L298.49-42.77Q297.46-43.80 296.09-44.41L296.09-44.41L296.09-44.41Q294.73-45.02 293.21-45.02L293.21-45.02L270.51-45.02L270.51-45.02Q267.19-45.02 264.28-43.85L264.28-43.85L264.28-43.85Q261.38-42.68 259.11-40.65L259.11-40.65L259.11-40.65Q256.84-38.62 255.35-35.86L255.35-35.86L255.35-35.86Q253.86-33.11 253.42-29.98L253.42-29.98ZM377.00-10.01L377.00 0L344.29 0L344.29 0Q338.62-0.05 333.64-2.22L333.64-2.22L333.64-2.22Q328.66-4.39 324.98-8.13L324.98-8.13L324.98-8.13Q321.29-11.87 319.14-16.85L319.14-16.85L319.14-16.85Q316.99-21.83 316.99-27.49L316.99-27.49L316.99-27.49Q316.99-33.15 319.14-38.16L319.14-38.16L319.14-38.16Q321.29-43.16 324.98-46.90L324.98-46.90L324.98-46.90Q328.66-50.63 333.64-52.81L333.64-52.81L333.64-52.81Q338.62-54.98 344.29-54.98L344.29-54.98L377.00-54.98L377.00-45.02L344.29-45.02L344.29-45.02Q340.67-44.97 337.52-43.58L337.52-43.58L337.52-43.58Q334.38-42.19 332.03-39.82L332.03-39.82L332.03-39.82Q329.69-37.45 328.34-34.28L328.34-34.28L328.34-34.28Q327.00-31.10 327.00-27.49L327.00-27.49L327.00-27.49Q327.00-23.88 328.34-20.70L328.34-20.70L328.34-20.70Q329.69-17.53 332.03-15.16L332.03-15.16L332.03-15.16Q334.38-12.79 337.52-11.40L337.52-11.40L337.52-11.40Q340.67-10.01 344.29-10.01L344.29-10.01L377.00-10.01ZM407.28-45.02L407.28 0L397.27 0L397.27-45.02L382.28-45.02L382.28-54.98L397.27-54.98L397.27-75L407.28-75L407.28-54.98L442.29-54.98L442.29-45.02L407.28-45.02ZM507.57-17.48L507.57-17.48L507.57-17.48Q507.57-13.87 506.20-10.67L506.20-10.67L506.20-10.67Q504.83-7.47 502.47-5.10L502.47-5.10L502.47-5.10Q500.10-2.73 496.90-1.37L496.90-1.37L496.90-1.37Q493.70 0 490.09 0L490.09 0L447.56 0L447.56-10.01L490.09-10.01L490.09-10.01Q491.60-10.01 492.97-10.60L492.97-10.60L492.97-10.60Q494.34-11.18 495.36-12.21L495.36-12.21L495.36-12.21Q496.39-13.23 496.97-14.58L496.97-14.58L496.97-14.58Q497.56-15.92 497.56-17.48L497.56-17.48L497.56-17.48Q497.56-18.99 496.97-20.36L496.97-20.36L496.97-20.36Q496.39-21.73 495.36-22.75L495.36-22.75L495.36-22.75Q494.34-23.78 492.97-24.39L492.97-24.39L492.97-24.39Q491.60-25 490.09-25L490.09-25L462.55-25L462.55-25Q459.42-25 456.69-26.17L456.69-26.17L456.69-26.17Q453.96-27.34 451.93-29.37L451.93-29.37L451.93-29.37Q449.90-31.40 448.73-34.13L448.73-34.13L448.73-34.13Q447.56-36.87 447.56-39.99L447.56-39.99L447.56-39.99Q447.56-43.12 448.73-45.85L448.73-45.85L448.73-45.85Q449.90-48.58 451.93-50.61L451.93-50.61L451.93-50.61Q453.96-52.64 456.69-53.81L456.69-53.81L456.69-53.81Q459.42-54.98 462.55-54.98L462.55-54.98L502.59-54.98L502.59-45.02L462.55-45.02L462.55-45.02Q460.45-45.02 459.01-43.58L459.01-43.58L459.01-43.58Q457.57-42.14 457.57-39.99L457.57-39.99L457.57-39.99Q457.57-37.89 459.01-36.45L459.01-36.45L459.01-36.45Q460.45-35.01 462.55-35.01L462.55-35.01L490.09-35.01L490.09-35.01Q493.70-35.01 496.90-33.64L496.90-33.64L496.90-33.64Q500.10-32.28 502.47-29.88L502.47-29.88L502.47-29.88Q504.83-27.49 506.20-24.32L506.20-24.32L506.20-24.32Q507.57-21.14 507.57-17.48Z" fill="url(#editing-sticker-gradient)" stroke="#000000" stroke-width="2"></path></g></g><style>text {
  font-size: 64px;
  font-family: Arial Black;
  dominant-baseline: central;
  text-anchor: middle;
}</style></svg>